<?xml version="1.0" encoding="utf-8"?>
<!-- Generator: Adobe Illustrator 18.1.1, SVG Export Plug-In . SVG Version: 6.00 Build 0)  -->
<svg version="1.1" id="Ebene_1" xmlns="http://www.w3.org/2000/svg" xmlns:xlink="http://www.w3.org/1999/xlink" x="0px" y="0px"
	 viewBox="0 0 548.578 409.091" enable-background="new 0 0 548.578 409.091" xml:space="preserve">
<g>
	<g>
		<path fill="#FFFFFF" d="M527.334,226.854c-0.174,0-0.35-0.019-0.522-0.056l-99.469-21.274c-0.794-0.169-1.456-0.714-1.775-1.46
			s-0.257-1.601,0.167-2.292c10.423-16.978,15.932-36.528,15.932-56.541c0-20.026-5.517-39.59-15.952-56.574
			c-0.425-0.691-0.488-1.547-0.168-2.293c0.319-0.746,0.981-1.291,1.776-1.461l99.489-21.24c0.742-0.152,1.508,0.027,2.095,0.502
			c0.587,0.475,0.928,1.188,0.928,1.943v158.246c0,0.755-0.341,1.469-0.928,1.944C528.457,226.66,527.901,226.854,527.334,226.854z"
			/>
	</g>
</g>
<g>
	<circle fill="#FFFFFF" cx="134.665" cy="188.259" r="10.585"/>
	<circle fill="#FFFFFF" cx="139.105" cy="109.908" r="10.585"/>
	<circle fill="#FFFFFF" cx="159.344" cy="132.195" r="10.585"/>
	<circle fill="#FFFFFF" cx="118.933" cy="147.686" r="10.585"/>
	<circle fill="#FFFFFF" cx="369.92" cy="109.434" r="13.163"/>
	<circle fill="#FFFFFF" cx="157.627" cy="166.887" r="10.585"/>
	<circle fill="#FFFFFF" cx="80.328" cy="127.514" r="10.585"/>
	<circle fill="#FFFFFF" cx="105.043" cy="106.874" r="10.585"/>
	<circle fill="#FFFFFF" cx="77.826" cy="161.865" r="10.585"/>
	<circle fill="#FFFFFF" cx="99.796" cy="187.081" r="10.585"/>
	<circle fill="#FFFFFF" cx="373.031" cy="152.152" r="13.163"/>
	<circle fill="#FFFFFF" cx="302.348" cy="184.975" r="13.163"/>
	<circle fill="#FFFFFF" cx="321.911" cy="134.52" r="13.163"/>
	<path fill="#FFFFFF" d="M317.122,31.43c-46.291,0-85.939,28.411-102.478,68.745c-18.935-29.429-51.871-48.991-89.465-48.991
		c-58.789,0-106.434,47.656-106.434,106.446c0,32.007,14.184,60.64,36.535,80.14l150.836,150.844
		c2.578,2.574,6.07,4.023,9.715,4.023c3.644,0,7.137-1.449,9.715-4.023l150.836-150.844c2.706-2.36,5.289-4.857,7.745-7.475
		c25.55-27.361,43.716-52.179,43.716-88.143C427.843,81.001,378.271,31.43,317.122,31.43z M118.933,208.18
		c-33.41,0-60.494-27.084-60.494-60.494c0-33.41,27.084-60.494,60.494-60.494c33.41,0,60.494,27.084,60.494,60.494
		C179.427,181.096,152.343,208.18,118.933,208.18z M321.912,209.748c-41.548,0-75.229-33.681-75.229-75.229
		s33.681-75.229,75.229-75.229s75.229,33.681,75.229,75.229S363.459,209.748,321.912,209.748z"/>
	<circle fill="#FFFFFF" cx="296.826" cy="87.539" r="13.163"/>
	<circle fill="#FFFFFF" cx="345.709" cy="183.511" r="13.163"/>
	<circle fill="#FFFFFF" cx="273.792" cy="158.397" r="13.163"/>
	<circle fill="#FFFFFF" cx="339.184" cy="83.766" r="13.163"/>
	<circle fill="#FFFFFF" cx="271.657" cy="115.255" r="13.163"/>
</g>
</svg>
