<?xml version="1.0" encoding="utf-8"?>
<!-- Generator: Adobe Illustrator 18.1.1, SVG Export Plug-In . SVG Version: 6.00 Build 0)  -->
<svg version="1.1" id="Ebene_1" xmlns="http://www.w3.org/2000/svg" xmlns:xlink="http://www.w3.org/1999/xlink" x="0px" y="0px"
	 viewBox="0 0 548.578 562.083" enable-background="new 0 0 548.578 562.083" xml:space="preserve">
<g>
	<g>
		<g>
			<path fill="#FFFFFF" d="M527.334,226.854c-0.174,0-0.35-0.019-0.522-0.056l-99.469-21.274c-0.794-0.169-1.456-0.714-1.775-1.46
				s-0.257-1.601,0.167-2.292c10.423-16.978,15.932-36.528,15.932-56.541c0-20.026-5.517-39.59-15.952-56.574
				c-0.425-0.691-0.488-1.547-0.168-2.293c0.319-0.746,0.981-1.291,1.776-1.461l99.489-21.24c0.742-0.152,1.508,0.027,2.095,0.502
				c0.587,0.475,0.928,1.188,0.928,1.943v158.246c0,0.755-0.341,1.469-0.928,1.944C528.457,226.66,527.901,226.854,527.334,226.854z
				"/>
		</g>
	</g>
	<g>
		<circle fill="#FFFFFF" cx="134.665" cy="188.259" r="10.585"/>
		<circle fill="#FFFFFF" cx="139.105" cy="109.908" r="10.585"/>
		<circle fill="#FFFFFF" cx="159.344" cy="132.195" r="10.585"/>
		<circle fill="#FFFFFF" cx="118.933" cy="147.686" r="10.585"/>
		<circle fill="#FFFFFF" cx="369.92" cy="109.434" r="13.163"/>
		<circle fill="#FFFFFF" cx="157.627" cy="166.887" r="10.585"/>
		<circle fill="#FFFFFF" cx="80.328" cy="127.514" r="10.585"/>
		<circle fill="#FFFFFF" cx="105.043" cy="106.874" r="10.585"/>
		<circle fill="#FFFFFF" cx="77.826" cy="161.865" r="10.585"/>
		<circle fill="#FFFFFF" cx="99.796" cy="187.081" r="10.585"/>
		<circle fill="#FFFFFF" cx="373.031" cy="152.152" r="13.163"/>
		<circle fill="#FFFFFF" cx="302.348" cy="184.975" r="13.163"/>
		<circle fill="#FFFFFF" cx="321.911" cy="134.52" r="13.163"/>
		<path fill="#FFFFFF" d="M317.122,31.43c-46.291,0-85.939,28.411-102.478,68.745c-18.935-29.429-51.871-48.991-89.465-48.991
			c-58.789,0-106.434,47.656-106.434,106.446c0,32.007,14.184,60.64,36.535,80.14l150.836,150.844
			c2.578,2.574,6.07,4.023,9.715,4.023c3.644,0,7.137-1.449,9.715-4.023l150.836-150.844c2.706-2.36,5.289-4.857,7.745-7.475
			c25.55-27.361,43.716-52.179,43.716-88.143C427.843,81.001,378.271,31.43,317.122,31.43z M118.933,208.18
			c-33.41,0-60.494-27.084-60.494-60.494c0-33.41,27.084-60.494,60.494-60.494c33.41,0,60.494,27.084,60.494,60.494
			C179.427,181.096,152.343,208.18,118.933,208.18z M321.912,209.748c-41.548,0-75.229-33.681-75.229-75.229
			s33.681-75.229,75.229-75.229s75.229,33.681,75.229,75.229S363.459,209.748,321.912,209.748z"/>
		<circle fill="#FFFFFF" cx="296.826" cy="87.539" r="13.163"/>
		<circle fill="#FFFFFF" cx="345.709" cy="183.511" r="13.163"/>
		<circle fill="#FFFFFF" cx="273.792" cy="158.397" r="13.163"/>
		<circle fill="#FFFFFF" cx="339.184" cy="83.766" r="13.163"/>
		<circle fill="#FFFFFF" cx="271.657" cy="115.255" r="13.163"/>
	</g>
	<g>
		<path fill="#FFFFFF" d="M71.806,467.91l19.711,50.254h0.255l19.711-50.254h10.705v61.852h-8.369v-24.469l0.85-25.148l-0.212-0.043
			l-20.051,49.66h-5.565l-19.966-49.532l-0.212,0.042l0.807,25.021v24.469h-8.369V467.91H71.806z"/>
		<path fill="#FFFFFF" d="M133.997,506.355c0-6.797,1.841-12.397,5.522-16.802c3.681-4.403,8.68-6.605,14.995-6.605
			c6.372,0,11.406,2.195,15.102,6.585c3.696,4.39,5.544,9.997,5.544,16.822v0.934c0,6.854-1.841,12.462-5.522,16.822
			c-3.682,4.362-8.694,6.543-15.038,6.543s-11.363-2.188-15.059-6.563c-3.695-4.376-5.543-9.976-5.543-16.802V506.355z
			 M142.366,507.267c0,4.865,1.026,8.883,3.08,12.05c2.053,3.168,5.104,4.752,9.154,4.752c3.993,0,7.023-1.584,9.091-4.752
			c2.067-3.167,3.102-7.185,3.102-12.05v-0.934c0-4.808-1.041-8.811-3.123-12.007c-2.081-3.196-5.133-4.794-9.154-4.794
			c-3.993,0-7.016,1.598-9.069,4.794c-2.054,3.196-3.08,7.199-3.08,12.007V507.267z"/>
		<path fill="#FFFFFF" d="M200.097,516.21l0.722,3.229h0.255l0.808-3.229l10.577-32.413h8.539l-16.907,45.964h-6.33l-17.119-45.964
			h8.581L200.097,516.21z"/>
		<path fill="#FFFFFF" d="M237.565,472.031h-8.369v-8.539h8.369V472.031z M237.565,529.761h-8.369v-45.964h8.369V529.761z"/>
		<path fill="#FFFFFF" d="M288.159,502.574h-25.615v17.629h29.948v9.559h-42.353V467.91h42.268v9.559h-29.863v15.547h25.615V502.574
			z"/>
		<path fill="#FFFFFF" d="M310.588,483.797l0.51,6.075c1.473-2.209,3.32-3.915,5.544-5.119c2.223-1.204,4.793-1.806,7.71-1.806
			c2.945,0,5.466,0.651,7.562,1.954s3.682,3.271,4.758,5.904c1.416-2.463,3.257-4.389,5.522-5.777
			c2.266-1.387,4.928-2.081,7.986-2.081c4.531,0,8.106,1.565,10.727,4.694c2.619,3.129,3.93,7.895,3.93,14.295v27.824h-12.404
			v-27.931c0-3.491-0.567-5.918-1.699-7.281c-1.133-1.361-2.818-2.044-5.056-2.044c-1.756,0-3.278,0.391-4.566,1.171
			c-1.289,0.781-2.315,1.867-3.08,3.258c0,0.539,0.015,1.001,0.043,1.384c0.027,0.384,0.042,0.773,0.042,1.171v30.272h-12.361
			v-27.931c0-3.406-0.567-5.812-1.699-7.217c-1.133-1.405-2.832-2.108-5.098-2.108c-1.672,0-3.137,0.32-4.396,0.959
			c-1.261,0.639-2.302,1.54-3.123,2.703v33.594h-12.361v-45.964H310.588z"/>
		<path fill="#FFFFFF" d="M372.44,506.355c0-6.854,1.912-12.469,5.735-16.844c3.823-4.376,9.118-6.563,15.888-6.563
			c6.797,0,12.121,2.181,15.973,6.542c3.851,4.361,5.777,9.982,5.777,16.865v0.892c0,6.91-1.919,12.539-5.756,16.886
			c-3.838,4.348-9.141,6.521-15.909,6.521c-6.797,0-12.114-2.174-15.951-6.521c-3.838-4.347-5.757-9.976-5.757-16.886V506.355z
			 M384.802,507.225c0,4.186,0.736,7.543,2.209,10.074c1.472,2.531,3.851,3.796,7.137,3.796c3.2,0,5.544-1.272,7.03-3.817
			c1.487-2.545,2.23-5.896,2.23-10.053v-0.892c0-4.071-0.751-7.394-2.252-9.967c-1.501-2.574-3.865-3.861-7.094-3.861
			c-3.201,0-5.544,1.295-7.03,3.882c-1.487,2.588-2.23,5.903-2.23,9.946V507.225z"/>
		<path fill="#FFFFFF" d="M438.2,472.541v11.257h7.731v8.708H438.2v23.407c0,1.784,0.368,3.059,1.104,3.823s1.728,1.146,2.974,1.146
			c0.651,0,1.211-0.035,1.679-0.105c0.467-0.07,1.012-0.191,1.635-0.361l1.062,8.963c-1.247,0.426-2.464,0.744-3.653,0.956
			c-1.189,0.213-2.479,0.319-3.866,0.319c-4.276,0-7.568-1.176-9.876-3.526c-2.309-2.351-3.463-6.075-3.463-11.173v-23.449h-6.712
			v-8.708h6.712v-11.257H438.2z"/>
		<path fill="#FFFFFF" d="M474.181,530.654c-6.627,0-11.923-2.125-15.888-6.373c-3.966-4.248-5.947-9.643-5.947-16.185v-1.699
			c0-6.825,1.876-12.446,5.628-16.864c3.753-4.418,8.787-6.613,15.103-6.585c6.202,0,11.017,1.869,14.443,5.607
			c3.426,3.738,5.14,8.794,5.14,15.165v6.755h-27.442l-0.085,0.254c0.227,3.019,1.239,5.501,3.037,7.447
			c1.799,1.946,4.241,2.919,7.328,2.919c2.747,0,5.027-0.276,6.84-0.828c1.812-0.553,3.795-1.424,5.947-2.613l3.355,7.666
			c-1.869,1.536-4.318,2.81-7.349,3.818C481.26,530.148,477.891,530.654,474.181,530.654z M473.077,492.505
			c-2.294,0-4.106,0.879-5.438,2.635c-1.332,1.756-2.152,4.063-2.464,6.924l0.127,0.213h15.208v-1.105
			c0-2.633-0.616-4.736-1.848-6.308C477.43,493.292,475.568,492.505,473.077,492.505z"/>
	</g>
</g>
</svg>
